<svg xmlns="http://www.w3.org/2000/svg" width="24" height="24" viewBox="0 0 24 24" role="img" aria-label="Heard">
  <!-- Exported from the Rail Figma library. Do not edit the path by hand; re-export. -->
  <g transform="translate(4.9, 1.31)"><path fill="currentColor" d="M14.1992 1.17676 L15.6143 1.93164 L14.1992 4.58789 L14.1992 20.29 L0 20.29 L0 0 L2.22461 2.73828 L3.90332 0.672852 L5.47461 3.08887 L6.98438 0.767578 L8.72461 2.37402 L10.4121 0.816406 L11.9746 2.73828 L14.1992 0 L14.1992 1.17676 Z M8.72461 4.00684 L7.21484 2.61328 L5.47461 5.29102 L3.79492 2.70801 L2.22461 4.6416 L1.19922 3.37891 L1.19922 19.0908 L13 19.0908 L13 6.83887 L6.73438 18.6016 L1.53613 13.4033 L3.16309 11.7773 L6.16406 14.7793 L11.7266 4.33691 L10.2861 2.56445 L8.72461 4.00684 Z"/></g>
</svg>
